# 3ds Max Wavefront OBJ Exporter v0.97b - (c)2007 guruware
# File Created: 31.12.2022 11:47:43

#
# object House
#

v  -10.0000 -5.1251 10.3729
v  -10.0000 -5.1251 -9.6271
v  10.0000 -5.1251 -9.6271
v  10.0000 -5.1251 10.3729
v  -1.0175 13.6943 1.3904
v  1.0175 13.6943 1.3904
v  1.0175 13.6943 -0.6446
v  -1.0175 13.6943 -0.6446
v  10.0000 7.1228 10.3729
v  -10.0000 7.1228 10.3729
v  10.0000 7.1228 -9.6271
v  -10.0000 7.1228 -9.6271
v  16.1920 7.1598 16.5649
v  -16.1920 7.1598 16.5649
v  16.1920 7.1598 -15.8191
v  -16.1920 7.1598 -15.8191
# 16 vertices

vn -0.5774 -0.5774 0.5774
vn -0.5774 -0.5774 -0.5774
vn 0.5774 -0.5774 -0.5774
vn 0.5774 -0.5774 0.5774
vn -0.1535 0.9762 0.1535
vn 0.1535 0.9762 0.1535
vn 0.1535 0.9762 -0.1535
vn -0.1535 0.9762 -0.1535
vn 0.3037 -0.9031 0.3037
vn -0.3037 -0.9031 0.3037
vn 0.3037 -0.9031 -0.3037
vn -0.3037 -0.9031 -0.3037
vn 0.7031 -0.1059 0.7031
vn -0.7031 -0.1059 0.7031
vn 0.7031 -0.1059 -0.7031
vn -0.7031 -0.1059 -0.7031
# 16 vertex normals

vt 20.0000 0.0000 0.0000
vt 20.0000 20.0000 0.0000
vt 0.0000 20.0000 0.0000
vt 0.0000 0.0000 0.0000
# 4 texture coords

o House
g House
s 2
f 1/1/1 2/2/2 3/3/3 4/4/4 
s 4
f 5/4/5 6/1/6 7/2/7 8/3/8 
s 8
f 1/4/1 4/1/4 9/2/9 10/3/10 
s 16
f 4/4/4 3/1/3 11/2/11 9/3/9 
s 32
f 3/4/3 2/1/2 12/2/12 11/3/11 
s 64
f 2/4/2 1/1/1 10/2/10 12/3/12 
s off
f 10/4/10 9/1/9 13/1/13 14/4/14 
f 9/1/9 11/2/11 15/2/15 13/1/13 
f 11/2/11 12/3/12 16/3/16 15/2/15 
f 12/3/12 10/4/10 14/4/14 16/3/16 
f 14/4/14 13/1/13 6/1/6 5/4/5 
f 13/1/13 15/2/15 7/2/7 6/1/6 
f 15/2/15 16/3/16 8/3/8 7/2/7 
f 16/3/16 14/4/14 5/4/5 8/3/8 
# 14 polygons

