# 3ds Max Wavefront OBJ Exporter v0.97b - (c)2007 guruware
# File Created: 26.02.2023 22:18:18

#
# object Cylinder001
#

v  -0.0000 4.0000 0.0000
v  -0.0000 3.7588 1.3681
v  12.0000 3.7588 1.3681
v  12.0000 4.0000 -0.0000
v  -0.0000 3.0642 2.5712
v  12.0000 3.0642 2.5712
v  0.0000 2.0000 3.4641
v  12.0000 2.0000 3.4641
v  0.0000 0.6946 3.9392
v  12.0000 0.6946 3.9392
v  0.0000 -0.6946 3.9392
v  12.0000 -0.6946 3.9392
v  0.0000 -2.0000 3.4641
v  12.0000 -2.0000 3.4641
v  0.0000 -3.0642 2.5712
v  12.0000 -3.0642 2.5712
v  0.0000 -3.7588 1.3681
v  12.0000 -3.7588 1.3681
v  0.0000 -4.0000 0.0000
v  12.0000 -4.0000 0.0000
v  0.0000 -3.7588 -1.3681
v  12.0000 -3.7588 -1.3681
v  0.0000 -3.0642 -2.5711
v  12.0000 -3.0642 -2.5712
v  -0.0000 -2.0000 -3.4641
v  12.0000 -2.0000 -3.4641
v  -0.0000 -0.6946 -3.9392
v  12.0000 -0.6946 -3.9392
v  -0.0000 0.6946 -3.9392
v  12.0000 0.6946 -3.9392
v  -0.0000 2.0000 -3.4641
v  12.0000 2.0000 -3.4641
v  -0.0000 3.0642 -2.5712
v  12.0000 3.0642 -2.5712
v  -0.0000 3.7588 -1.3681
v  12.0000 3.7588 -1.3681
v  24.0000 3.7588 1.3681
v  24.0000 4.0000 -0.0000
v  24.0000 3.0642 2.5711
v  24.0000 2.0000 3.4641
v  24.0000 0.6946 3.9392
v  24.0000 -0.6946 3.9392
v  24.0000 -2.0000 3.4641
v  24.0000 -3.0642 2.5711
v  24.0000 -3.7588 1.3681
v  24.0000 -4.0000 -0.0000
v  24.0000 -3.7588 -1.3681
v  24.0000 -3.0642 -2.5712
v  24.0000 -2.0000 -3.4641
v  24.0000 -0.6946 -3.9392
v  24.0000 0.6946 -3.9392
v  24.0000 2.0000 -3.4641
v  24.0000 3.0642 -2.5712
v  24.0000 3.7588 -1.3681
v  36.0000 3.7588 1.3681
v  36.0000 4.0000 -0.0000
v  36.0000 3.0642 2.5711
v  36.0000 2.0000 3.4641
v  36.0000 0.6946 3.9392
v  36.0000 -0.6946 3.9392
v  36.0000 -2.0000 3.4641
v  36.0000 -3.0642 2.5711
v  36.0000 -3.7588 1.3681
v  36.0000 -4.0000 -0.0000
v  36.0000 -3.7588 -1.3681
v  36.0000 -3.0642 -2.5712
v  36.0000 -2.0000 -3.4641
v  36.0000 -0.6946 -3.9392
v  36.0000 0.6946 -3.9392
v  36.0000 2.0000 -3.4641
v  36.0000 3.0642 -2.5712
v  36.0000 3.7588 -1.3681
v  48.0000 3.7588 1.3681
v  48.0000 4.0000 -0.0000
v  48.0000 3.0642 2.5711
v  48.0000 2.0000 3.4641
v  48.0000 0.6946 3.9392
v  48.0000 -0.6946 3.9392
v  48.0000 -2.0000 3.4641
v  48.0000 -3.0642 2.5711
v  48.0000 -3.7588 1.3681
v  48.0000 -4.0000 -0.0000
v  48.0000 -3.7588 -1.3681
v  48.0000 -3.0642 -2.5712
v  48.0000 -2.0000 -3.4641
v  48.0000 -0.6946 -3.9392
v  48.0000 0.6946 -3.9392
v  48.0000 2.0000 -3.4641
v  48.0000 3.0642 -2.5712
v  48.0000 3.7588 -1.3681
v  60.0000 3.7588 1.3681
v  60.0000 4.0000 -0.0000
v  60.0000 3.0642 2.5711
v  60.0000 2.0000 3.4641
v  60.0000 0.6946 3.9392
v  60.0000 -0.6946 3.9392
v  60.0000 -2.0000 3.4641
v  60.0000 -3.0642 2.5711
v  60.0000 -3.7588 1.3681
v  60.0000 -4.0000 -0.0000
v  60.0000 -3.7588 -1.3681
v  60.0000 -3.0642 -2.5712
v  60.0000 -2.0000 -3.4641
v  60.0000 -0.6946 -3.9392
v  60.0000 0.6946 -3.9392
v  60.0000 2.0000 -3.4641
v  60.0000 3.0642 -2.5712
v  60.0000 3.7588 -1.3681
# 108 vertices

vn -0.0000 1.0000 -0.0000
vn -0.0000 0.9397 0.3420
vn -0.0000 0.7660 0.6428
vn 0.0000 0.5000 0.8660
vn 0.0000 0.1736 0.9848
vn 0.0000 -0.1736 0.9848
vn 0.0000 -0.5000 0.8660
vn 0.0000 -0.7660 0.6428
vn 0.0000 -0.9397 0.3420
vn 0.0000 -1.0000 -0.0000
vn 0.0000 -0.9397 -0.3420
vn 0.0000 -0.7660 -0.6428
vn -0.0000 -0.5000 -0.8660
vn -0.0000 -0.1736 -0.9848
vn -0.0000 0.1736 -0.9848
vn -0.0000 0.5000 -0.8660
vn -0.0000 0.7660 -0.6428
vn -0.0000 0.9397 -0.3420
# 18 vertex normals

vt 0.7777 0.0000 1.0000
vt 0.8333 0.0000 1.0000
vt 0.8333 0.2000 1.0000
vt 0.7777 0.2000 1.0000
vt 0.8888 0.0000 1.0000
vt 0.8888 0.2000 1.0000
vt 0.9444 0.0000 1.0000
vt 0.9444 0.2000 1.0000
vt 1.0000 0.0000 1.0000
vt 1.0000 0.2000 1.0000
vt 0.0000 0.0000 1.0000
vt 0.0556 0.0000 1.0000
vt 0.0556 0.2000 1.0000
vt 0.0000 0.2000 1.0000
vt 0.1111 0.0000 1.0000
vt 0.1111 0.2000 1.0000
vt 0.1667 0.0000 1.0000
vt 0.1667 0.2000 1.0000
vt 0.2222 0.0000 1.0000
vt 0.2222 0.2000 1.0000
vt 0.2778 0.0000 1.0000
vt 0.2778 0.2000 1.0000
vt 0.3333 0.0000 1.0000
vt 0.3333 0.2000 1.0000
vt 0.3889 0.0000 1.0000
vt 0.3889 0.2000 1.0000
vt 0.4444 0.0000 1.0000
vt 0.4444 0.2000 1.0000
vt 0.5000 0.0000 1.0000
vt 0.5000 0.2000 1.0000
vt 0.5555 0.0000 1.0000
vt 0.5555 0.2000 1.0000
vt 0.6111 0.0000 1.0000
vt 0.6111 0.2000 1.0000
vt 0.6666 0.0000 1.0000
vt 0.6666 0.2000 1.0000
vt 0.7222 0.0000 1.0000
vt 0.7222 0.2000 1.0000
vt 0.8333 0.4000 1.0000
vt 0.7777 0.4000 1.0000
vt 0.8888 0.4000 1.0000
vt 0.9444 0.4000 1.0000
vt 1.0000 0.4000 1.0000
vt 0.0556 0.4000 1.0000
vt 0.0000 0.4000 1.0000
vt 0.1111 0.4000 1.0000
vt 0.1667 0.4000 1.0000
vt 0.2222 0.4000 1.0000
vt 0.2778 0.4000 1.0000
vt 0.3333 0.4000 1.0000
vt 0.3889 0.4000 1.0000
vt 0.4444 0.4000 1.0000
vt 0.5000 0.4000 1.0000
vt 0.5555 0.4000 1.0000
vt 0.6111 0.4000 1.0000
vt 0.6666 0.4000 1.0000
vt 0.7222 0.4000 1.0000
vt 0.8333 0.6000 1.0000
vt 0.7777 0.6000 1.0000
vt 0.8888 0.6000 1.0000
vt 0.9444 0.6000 1.0000
vt 1.0000 0.6000 1.0000
vt 0.0556 0.6000 1.0000
vt 0.0000 0.6000 1.0000
vt 0.1111 0.6000 1.0000
vt 0.1667 0.6000 1.0000
vt 0.2222 0.6000 1.0000
vt 0.2778 0.6000 1.0000
vt 0.3333 0.6000 1.0000
vt 0.3889 0.6000 1.0000
vt 0.4444 0.6000 1.0000
vt 0.5000 0.6000 1.0000
vt 0.5555 0.6000 1.0000
vt 0.6111 0.6000 1.0000
vt 0.6666 0.6000 1.0000
vt 0.7222 0.6000 1.0000
vt 0.8333 0.8000 1.0000
vt 0.7777 0.8000 1.0000
vt 0.8888 0.8000 1.0000
vt 0.9444 0.8000 1.0000
vt 1.0000 0.8000 1.0000
vt 0.0556 0.8000 1.0000
vt 0.0000 0.8000 1.0000
vt 0.1111 0.8000 1.0000
vt 0.1667 0.8000 1.0000
vt 0.2222 0.8000 1.0000
vt 0.2778 0.8000 1.0000
vt 0.3333 0.8000 1.0000
vt 0.3889 0.8000 1.0000
vt 0.4444 0.8000 1.0000
vt 0.5000 0.8000 1.0000
vt 0.5555 0.8000 1.0000
vt 0.6111 0.8000 1.0000
vt 0.6666 0.8000 1.0000
vt 0.7222 0.8000 1.0000
vt 0.8333 1.0000 1.0000
vt 0.7777 1.0000 1.0000
vt 0.8888 1.0000 1.0000
vt 0.9444 1.0000 1.0000
vt 1.0000 1.0000 1.0000
vt 0.0556 1.0000 1.0000
vt 0.0000 1.0000 1.0000
vt 0.1111 1.0000 1.0000
vt 0.1667 1.0000 1.0000
vt 0.2222 1.0000 1.0000
vt 0.2778 1.0000 1.0000
vt 0.3333 1.0000 1.0000
vt 0.3889 1.0000 1.0000
vt 0.4444 1.0000 1.0000
vt 0.5000 1.0000 1.0000
vt 0.5555 1.0000 1.0000
vt 0.6111 1.0000 1.0000
vt 0.6666 1.0000 1.0000
vt 0.7222 1.0000 1.0000
# 114 texture coords

o Cylinder001
g Cylinder001
s 8
f 1/1/1 2/2/2 3/3/2 4/4/1 
f 2/2/2 5/5/3 6/6/3 3/3/2 
f 5/5/3 7/7/4 8/8/4 6/6/3 
f 7/7/4 9/9/5 10/10/5 8/8/4 
f 9/11/5 11/12/6 12/13/6 10/14/5 
f 11/12/6 13/15/7 14/16/7 12/13/6 
f 13/15/7 15/17/8 16/18/8 14/16/7 
f 15/17/8 17/19/9 18/20/9 16/18/8 
f 17/19/9 19/21/10 20/22/10 18/20/9 
f 19/21/10 21/23/11 22/24/11 20/22/10 
f 21/23/11 23/25/12 24/26/12 22/24/11 
f 23/25/12 25/27/13 26/28/13 24/26/12 
f 25/27/13 27/29/14 28/30/14 26/28/13 
f 27/29/14 29/31/15 30/32/15 28/30/14 
f 29/31/15 31/33/16 32/34/16 30/32/15 
f 31/33/16 33/35/17 34/36/17 32/34/16 
f 33/35/17 35/37/18 36/38/18 34/36/17 
f 35/37/18 1/1/1 4/4/1 36/38/18 
f 4/4/1 3/3/2 37/39/2 38/40/1 
f 3/3/2 6/6/3 39/41/3 37/39/2 
f 6/6/3 8/8/4 40/42/4 39/41/3 
f 8/8/4 10/10/5 41/43/5 40/42/4 
f 10/14/5 12/13/6 42/44/6 41/45/5 
f 12/13/6 14/16/7 43/46/7 42/44/6 
f 14/16/7 16/18/8 44/47/8 43/46/7 
f 16/18/8 18/20/9 45/48/9 44/47/8 
f 18/20/9 20/22/10 46/49/10 45/48/9 
f 20/22/10 22/24/11 47/50/11 46/49/10 
f 22/24/11 24/26/12 48/51/12 47/50/11 
f 24/26/12 26/28/13 49/52/13 48/51/12 
f 26/28/13 28/30/14 50/53/14 49/52/13 
f 28/30/14 30/32/15 51/54/15 50/53/14 
f 30/32/15 32/34/16 52/55/16 51/54/15 
f 32/34/16 34/36/17 53/56/17 52/55/16 
f 34/36/17 36/38/18 54/57/18 53/56/17 
f 36/38/18 4/4/1 38/40/1 54/57/18 
f 38/40/1 37/39/2 55/58/2 56/59/1 
f 37/39/2 39/41/3 57/60/3 55/58/2 
f 39/41/3 40/42/4 58/61/4 57/60/3 
f 40/42/4 41/43/5 59/62/5 58/61/4 
f 41/45/5 42/44/6 60/63/6 59/64/5 
f 42/44/6 43/46/7 61/65/7 60/63/6 
f 43/46/7 44/47/8 62/66/8 61/65/7 
f 44/47/8 45/48/9 63/67/9 62/66/8 
f 45/48/9 46/49/10 64/68/10 63/67/9 
f 46/49/10 47/50/11 65/69/11 64/68/10 
f 47/50/11 48/51/12 66/70/12 65/69/11 
f 48/51/12 49/52/13 67/71/13 66/70/12 
f 49/52/13 50/53/14 68/72/14 67/71/13 
f 50/53/14 51/54/15 69/73/15 68/72/14 
f 51/54/15 52/55/16 70/74/16 69/73/15 
f 52/55/16 53/56/17 71/75/17 70/74/16 
f 53/56/17 54/57/18 72/76/18 71/75/17 
f 54/57/18 38/40/1 56/59/1 72/76/18 
f 56/59/1 55/58/2 73/77/2 74/78/1 
f 55/58/2 57/60/3 75/79/3 73/77/2 
f 57/60/3 58/61/4 76/80/4 75/79/3 
f 58/61/4 59/62/5 77/81/5 76/80/4 
f 59/64/5 60/63/6 78/82/6 77/83/5 
f 60/63/6 61/65/7 79/84/7 78/82/6 
f 61/65/7 62/66/8 80/85/8 79/84/7 
f 62/66/8 63/67/9 81/86/9 80/85/8 
f 63/67/9 64/68/10 82/87/10 81/86/9 
f 64/68/10 65/69/11 83/88/11 82/87/10 
f 65/69/11 66/70/12 84/89/12 83/88/11 
f 66/70/12 67/71/13 85/90/13 84/89/12 
f 67/71/13 68/72/14 86/91/14 85/90/13 
f 68/72/14 69/73/15 87/92/15 86/91/14 
f 69/73/15 70/74/16 88/93/16 87/92/15 
f 70/74/16 71/75/17 89/94/17 88/93/16 
f 71/75/17 72/76/18 90/95/18 89/94/17 
f 72/76/18 56/59/1 74/78/1 90/95/18 
f 74/78/1 73/77/2 91/96/2 92/97/1 
f 73/77/2 75/79/3 93/98/3 91/96/2 
f 75/79/3 76/80/4 94/99/4 93/98/3 
f 76/80/4 77/81/5 95/100/5 94/99/4 
f 77/83/5 78/82/6 96/101/6 95/102/5 
f 78/82/6 79/84/7 97/103/7 96/101/6 
f 79/84/7 80/85/8 98/104/8 97/103/7 
f 80/85/8 81/86/9 99/105/9 98/104/8 
f 81/86/9 82/87/10 100/106/10 99/105/9 
f 82/87/10 83/88/11 101/107/11 100/106/10 
f 83/88/11 84/89/12 102/108/12 101/107/11 
f 84/89/12 85/90/13 103/109/13 102/108/12 
f 85/90/13 86/91/14 104/110/14 103/109/13 
f 86/91/14 87/92/15 105/111/15 104/110/14 
f 87/92/15 88/93/16 106/112/16 105/111/15 
f 88/93/16 89/94/17 107/113/17 106/112/16 
f 89/94/17 90/95/18 108/114/18 107/113/17 
f 90/95/18 74/78/1 92/97/1 108/114/18 
# 90 polygons

